<svg xmlns="http://www.w3.org/2000/svg" viewBox="0 0 23.36 23.36">
        <path d="M 11.68 17.32 c -3.12 0 -5.64 -2.52 -5.64 -5.64 s 2.52 -5.64 5.64 -5.64 s 5.64 2.52 5.64 5.64 s -2.52 5.64 -5.64 5.64 z M 11.68 7.72 c -2.2 0 -3.96 1.76 -3.96 3.96 s 1.76 3.96 3.96 3.96 s 3.96 -1.76 3.96 -3.96 s -1.76 -3.96 -3.96 -3.96 z M 11.68 4.72 c -0.48 0 -0.84 -0.36 -0.84 -0.84 v -2.04 c 0 -0.48 0.36 -0.84 0.84 -0.84 s 0.84 0.36 0.84 0.84 v 2.04 c 0 0.48 -0.36 0.84 -0.84 0.84 z M 17.2 7 c -0.2 0 -0.44 -0.08 -0.6 -0.24 c -0.32 -0.32 -0.32 -0.84 0 -1.2 l 1.44 -1.44 c 0.32 -0.32 0.84 -0.32 1.2 0 c 0.32 0.32 0.32 0.84 0 1.2 l -1.44 1.44 c -0.2 0.16 -0.4 0.24 -0.6 0.24 z M 19.48 12.52 c -0.48 0 -0.84 -0.36 -0.84 -0.84 s 0.36 -0.84 0.84 -0.84 h 2.04 c 0.48 0 0.84 0.36 0.84 0.84 s -0.36 0.84 -0.84 0.84 h -2.04 z M 18.64 19.48 c -0.2 0 -0.44 -0.08 -0.6 -0.24 l -1.44 -1.48 c -0.32 -0.32 -0.32 -0.84 0 -1.2 c 0.32 -0.32 0.84 -0.32 1.2 0 l 1.44 1.44 c 0.32 0.32 0.32 0.84 0 1.2 c -0.16 0.2 -0.4 0.28 -0.6 0.28 z M 11.68 22.36 c -0.48 0 -0.84 -0.36 -0.84 -0.84 v -2.04 c 0 -0.48 0.36 -0.84 0.84 -0.84 s 0.84 0.36 0.84 0.84 v 2.04 c 0 0.48 -0.36 0.84 -0.84 0.84 z M 4.72 19.48 c -0.2 0 -0.44 -0.08 -0.6 -0.24 c -0.32 -0.32 -0.32 -0.84 0 -1.2 l 1.44 -1.44 c 0.32 -0.32 0.84 -0.32 1.2 0 s 0.32 0.84 0 1.2 l -1.44 1.44 c -0.16 0.16 -0.4 0.24 -0.6 0.24 z M 1.84 12.52 c -0.48 0 -0.84 -0.36 -0.84 -0.84 s 0.36 -0.84 0.84 -0.84 h 2.04 c 0.48 0 0.84 0.36 0.84 0.84 s -0.36 0.84 -0.84 0.84 h -2.04 z M 6.16 7 c -0.2 0 -0.44 -0.08 -0.6 -0.24 l -1.44 -1.44 c -0.32 -0.32 -0.32 -0.84 0 -1.2 c 0.32 -0.32 0.84 -0.32 1.2 0 l 1.44 1.44 c 0.32 0.32 0.32 0.84 0 1.2 c -0.16 0.16 -0.36 0.24 -0.6 0.24 z" fill="#4b6f85" stroke="#fff" stroke-width="0.1"/>
    </svg> 